<svg id="way" enable-background="new 0 0 300 300" height="512" viewBox="0 0 300 300" width="512" xmlns="http://www.w3.org/2000/svg"><g><path d="m133.794 111.265c0-2.502-2.028-4.53-4.529-4.53s-4.529 2.028-4.529 4.53c0 2.501 2.028 4.529 4.529 4.529s4.529-2.028 4.529-4.529z"/><path d="m93.265 39.794c2.501 0 4.529-2.028 4.529-4.529 0-2.502-2.028-4.53-4.529-4.53s-4.529 2.028-4.529 4.53c-.001 2.501 2.027 4.529 4.529 4.529z"/><path d="m37.265 130.735c-2.501 0-4.529 2.028-4.529 4.53 0 2.501 2.028 4.529 4.529 4.529s4.529-2.028 4.529-4.529c0-2.502-2.028-4.53-4.529-4.53z"/><path d="m75.265 185.265c13.234 0 24-10.766 24-24s-10.766-24-24-24-24 10.766-24 24 10.765 24 24 24zm0-40c8.824 0 16 7.176 16 16s-7.176 16-16 16-16-7.176-16-16 7.175-16 16-16z"/><path d="m243.265 137.265c-13.234 0-24 10.766-24 24s10.766 24 24 24 24-10.766 24-24-10.766-24-24-24zm0 40c-8.824 0-16-7.176-16-16s7.176-16 16-16 16 7.176 16 16-7.176 16-16 16z"/><path d="m243.265 221.265c-11.869 0-21.726 8.667-23.639 20h-36.723c-1.913-11.333-11.77-20-23.639-20s-21.726 8.667-23.639 20h-36.722c-.614-3.637-2.04-6.996-4.098-9.884l50.575-50.575c3.924 2.796 8.709 4.459 13.884 4.459 13.234 0 24-10.766 24-24 0-5.175-1.663-9.96-4.459-13.884l50.575-50.575c3.924 2.796 8.709 4.459 13.884 4.459 13.234 0 24-10.766 24-24s-10.766-24-24-24c-11.869 0-21.726 8.667-23.639 20h-36.723c-1.913-11.333-11.77-20-23.639-20s-21.726 8.667-23.639 20h-36.721c-1.913-11.333-11.77-20-23.639-20-13.234 0-24 10.766-24 24s10.766 24 24 24c11.869 0 21.726-8.667 23.639-20h36.723c1.913 11.333 11.77 20 23.639 20s21.726-8.667 23.639-20h36.723c.614 3.637 2.04 6.996 4.098 9.884l-50.575 50.575c-3.924-2.796-8.709-4.459-13.884-4.459-13.234 0-24 10.766-24 24 0 5.175 1.663 9.96 4.459 13.884l-50.575 50.575c-3.924-2.796-8.709-4.459-13.884-4.459-13.234 0-24 10.766-24 24s10.766 24 24 24c11.869 0 21.726-8.667 23.639-20h36.723c1.913 11.333 11.77 20 23.639 20s21.726-8.667 23.639-20h36.723c1.913 11.333 11.77 20 23.639 20 13.234 0 24-10.766 24-24s-10.769-24-24.003-24zm-168-128c-8.824 0-16-7.176-16-16s7.176-16 16-16 16 7.176 16 16-7.176 16-16 16zm84 0c-8.824 0-16-7.176-16-16s7.176-16 16-16 16 7.176 16 16-7.176 16-16 16zm84-32c8.824 0 16 7.176 16 16s-7.176 16-16 16-16-7.176-16-16 7.175-16 16-16zm-84 84c8.824 0 16 7.176 16 16s-7.176 16-16 16-16-7.176-16-16 7.175-16 16-16zm-84 116c-8.824 0-16-7.176-16-16s7.176-16 16-16 16 7.176 16 16-7.176 16-16 16zm84 0c-8.824 0-16-7.176-16-16s7.176-16 16-16 16 7.176 16 16-7.176 16-16 16zm84 0c-8.824 0-16-7.176-16-16s7.176-16 16-16 16 7.176 16 16-7.176 16-16 16z"/></g></svg>