<?xml version="1.0" encoding="utf-8"?>
<!-- Generator: Adobe Illustrator 26.0.1, SVG Export Plug-In . SVG Version: 6.00 Build 0)  -->
<svg version="1.1" id="Layer_1" xmlns="http://www.w3.org/2000/svg" xmlns:xlink="http://www.w3.org/1999/xlink" x="0px" y="0px"
	 viewBox="0 0 512 512" style="enable-background:new 0 0 512 512;" xml:space="preserve">
<style type="text/css">
	.st0{fill:#FB923C;}
	.st1{fill:#FDBA74;}
</style>
<path class="st0" d="M213.3,85.3c70.7,0,128,57.3,128,128h34.1c0-89.5-72.6-162.1-162.1-162.1c-89.6,0-162.1,72.6-162.1,162.1
	c0,89.6,72.6,162.1,162.1,162.1H266l-27,27.1l24.1,24.1l56.2-56.2c6.7-6.7,6.7-17.5,0-24.1l-56.2-56.2l-24.1,24.1l26.9,26.8v0.2
	h-52.5c-70.7,0-128-57.3-128-128C85.3,142.6,142.6,85.3,213.3,85.3L213.3,85.3z"/>
<path class="st1" d="M358.4,256c-22.9,0-43.9,7.6-60.9,20.2l24.6,24.6c10.6-6.7,23-10.7,36.4-10.7c37.7,0,68.3,30.6,68.3,68.3
	c0,37.7-30.6,68.3-68.3,68.3c-13.4,0-25.8-4-36.4-10.7l-24.6,24.6c17,12.7,38.1,20.2,60.9,20.2c56.6,0,102.4-45.8,102.4-102.4
	C460.8,301.8,415,256,358.4,256L358.4,256z"/>
<text transform="matrix(1 0 0 1 -419.9309 193.8372)" class="st0" style="font-family:'MyriadPro-Regular'; font-size:93.3941px;">FB923C</text>
<text transform="matrix(1 0 0 1 -384.929 318.1633)" class="st1" style="font-family:'MyriadPro-Regular'; font-size:57.9428px;">FDBA74</text>
</svg>
