<?xml version="1.0" encoding="utf-8"?>
<!-- Generator: Adobe Illustrator 26.0.1, SVG Export Plug-In . SVG Version: 6.00 Build 0)  -->
<svg version="1.1" id="Layer_1" xmlns="http://www.w3.org/2000/svg" xmlns:xlink="http://www.w3.org/1999/xlink" x="0px" y="0px"
	 viewBox="0 0 512 512" style="enable-background:new 0 0 512 512;" xml:space="preserve">
<style type="text/css">
	.st0{fill:#FDBA74;}
	.st1{fill:#FB923C;}
</style>
<path class="st0" d="M256,233c-28.3,0-51.2,22.9-51.2,51.2s22.9,51.2,51.2,51.2s51.2-22.9,51.2-51.2S284.3,233,256,233L256,233z
	 M256,301.3c-9.4,0-17.1-7.6-17.1-17.1s7.6-17.1,17.1-17.1s17.1,7.6,17.1,17.1S265.4,301.3,256,301.3z"/>
<path class="st1" d="M423.6,292.9c0.1-2.9,0.4-5.8,0.4-8.7c0-65.2-37.2-121.6-91.4-149.5c-1-41.6-34.8-75-76.6-75
	s-75.6,33.4-76.6,75c-54.3,27.9-91.4,84.2-91.4,149.5c0,2.9,0.3,5.8,0.4,8.7c-22.2,13.5-37.2,37.6-37.2,65.5
	c0,42.4,34.4,76.8,76.8,76.8c13.5,0,25.9-3.8,36.9-9.9c26.3,17,57.5,26.9,91.1,26.9c33.6,0,64.8-9.9,91-26.9
	c11,6.1,23.5,9.9,36.9,9.9c42.4,0,76.8-34.4,76.8-76.8C460.8,330.5,445.8,306.4,423.6,292.9L423.6,292.9z M256,93.9
	c23.6,0,42.7,19.1,42.7,42.7c0,23.6-19.1,42.7-42.7,42.7s-42.7-19.1-42.7-42.7C213.3,113,232.4,93.9,256,93.9z M128,401.1
	c-23.6,0-42.7-19.1-42.7-42.7c0-23.6,19.1-42.7,42.7-42.7c23.6,0,42.7,19.1,42.7,42.7C170.7,382,151.6,401.1,128,401.1z
	 M320.5,401.6c-19.1,10.5-41.1,16.5-64.5,16.5c-23.4,0-45.4-6-64.5-16.6c8.4-12.3,13.3-27.2,13.3-43.2c0-42.4-34.4-76.8-76.8-76.8
	c-2,0-3.9,0.4-5.8,0.6c0.7-47.8,26.5-89.5,64.8-112.6c12.4,25.8,38.5,43.8,69.1,43.8c30.6,0,56.7-18,69.1-43.8
	c38.3,23.1,64,64.7,64.7,112.6c-2-0.1-3.8-0.6-5.8-0.6c-42.4,0-76.8,34.4-76.8,76.8C307.2,374.4,312.1,389.3,320.5,401.6
	L320.5,401.6z M384,401.1c-23.6,0-42.6-19.1-42.6-42.7c0-23.6,19.1-42.7,42.6-42.7c23.6,0,42.7,19.1,42.7,42.7
	C426.7,382,407.6,401.1,384,401.1z"/>
<text transform="matrix(1 0 0 1 -499.0039 164.125)" class="st1" style="font-family:'MyriadPro-Regular'; font-size:93.3941px;">FB923C</text>
<text transform="matrix(1 0 0 1 -464.002 288.4512)" class="st0" style="font-family:'MyriadPro-Regular'; font-size:57.9428px;">FDBA74</text>
<text transform="matrix(1 0 0 1 866 194)" style="font-family:'MyriadPro-Regular'; font-size:12px;">Lorem ipsum</text>
</svg>
